<?xml version="1.0" encoding="UTF-8"?>
<svg version="1.1" xmlns="http://www.w3.org/2000/svg" width="136" height="26">
<path d="M0 0 C0.69738281 0.28166016 1.39476563 0.56332031 2.11328125 0.85351562 C3.82647045 1.54583181 5.53836509 2.24134998 7.25 2.9375 C7.35375436 7.06173599 7.24734402 10.92131359 6.25 14.9375 C3.90438241 17.25451249 1.3567435 17.98328593 -1.75 18.9375 C-2.96234746 19.53357083 -4.17099728 20.13724862 -5.375 20.75 C-12.87891048 23.3902648 -19.88454195 18.91253182 -26.75 15.9375 C-26.75 11.3175 -26.75 6.6975 -26.75 1.9375 C-24.33848443 0.90270787 -21.92205531 -0.1154372 -19.5 -1.125 C-18.81808594 -1.41955078 -18.13617188 -1.71410156 -17.43359375 -2.01757812 C-10.45147836 -4.89854807 -6.72173016 -2.73824735 0 0 Z " fill="#505555" transform="translate(26.75,4.0625)"/>
<path d="M0 0 C2.49133239 1.37818388 4.1092897 2.49208798 5.9375 4.625 C4.9475 5.12 4.9475 5.12 3.9375 5.625 C3.9375 6.285 3.9375 6.945 3.9375 7.625 C4.5975 7.955 5.2575 8.285 5.9375 8.625 C1.63677587 9.6024373 -0.21747282 9.60953016 -4.0625 7.625 C-6.69787508 7.61864754 -6.69787508 7.61864754 -9.0625 8.625 C-10.42270151 10.59258273 -10.42270151 10.59258273 -11.0625 12.625 C-11.7225 12.625 -12.3825 12.625 -13.0625 12.625 C-13.0625 11.635 -13.0625 10.645 -13.0625 9.625 C-13.7225 9.625 -14.3825 9.625 -15.0625 9.625 C-15.3925 10.615 -15.7225 11.605 -16.0625 12.625 C-18.0625 10.625 -18.0625 10.625 -18.125 8.0625 C-18.104375 7.258125 -18.08375 6.45375 -18.0625 5.625 C-18.3925 5.295 -18.7225 4.965 -19.0625 4.625 C-19.0625 8.585 -19.0625 12.545 -19.0625 16.625 C-17.515625 17.099375 -15.96875 17.57375 -14.375 18.0625 C-13.50488281 18.32933594 -12.63476562 18.59617187 -11.73828125 18.87109375 C-10.85527344 19.11988281 -9.97226563 19.36867188 -9.0625 19.625 C-8.2684375 19.8725 -7.474375 20.12 -6.65625 20.375 C-3.02548572 20.72495318 -0.59718045 19.57370605 2.75 18.1875 C3.91144531 17.71441406 5.07289062 17.24132812 6.26953125 16.75390625 C7.14996094 16.38136719 8.03039062 16.00882813 8.9375 15.625 C9.2675 11.995 9.5975 8.365 9.9375 4.625 C10.5975 4.955 11.2575 5.285 11.9375 5.625 C12.04236166 9.42623507 11.92797715 12.93999898 10.9375 16.625 C8.5775722 18.85829753 5.99060743 19.63819206 2.9375 20.625 C1.72615348 21.22310234 0.51758817 21.82688613 -0.6875 22.4375 C-8.19141048 25.0777648 -15.19704195 20.60003182 -22.0625 17.625 C-22.0625 13.005 -22.0625 8.385 -22.0625 3.625 C-19.65098443 2.59020787 -17.23455531 1.5720628 -14.8125 0.5625 C-14.13058594 0.26794922 -13.44867188 -0.02660156 -12.74609375 -0.33007812 C-7.31386567 -2.57153146 -5.20765325 -2.33813003 0 0 Z " fill="#484945" transform="translate(22.0625,2.375)"/>
<path d="M0 0 C-2.79607022 1.46491151 -5.57006766 2.62245922 -8.5625 3.625 C-9.32691406 3.88539063 -10.09132813 4.14578125 -10.87890625 4.4140625 C-13 5 -13 5 -16 5 C-16 9.29 -16 13.58 -16 18 C-14.453125 18.474375 -12.90625 18.94875 -11.3125 19.4375 C-10.44238281 19.70433594 -9.57226562 19.97117187 -8.67578125 20.24609375 C-7.79277344 20.49488281 -6.90976563 20.74367188 -6 21 C-5.2059375 21.2475 -4.411875 21.495 -3.59375 21.75 C0.03701428 22.09995318 2.46531955 20.94870605 5.8125 19.5625 C6.97394531 19.08941406 8.13539062 18.61632812 9.33203125 18.12890625 C10.21246094 17.75636719 11.09289062 17.38382813 12 17 C12.33 13.37 12.66 9.74 13 6 C13.66 6.33 14.32 6.66 15 7 C15.10486166 10.80123507 14.99047715 14.31499898 14 18 C11.6400722 20.23329753 9.05310743 21.01319206 6 22 C4.78865348 22.59810234 3.58008817 23.20188613 2.375 23.8125 C-5.12891048 26.4527648 -12.13454195 21.97503182 -19 19 C-19 14.38 -19 9.76 -19 5 C-16.58848443 3.96520787 -14.17205531 2.9470628 -11.75 1.9375 C-11.06808594 1.64294922 -10.38617188 1.34839844 -9.68359375 1.04492188 C-5.98010605 -0.48321625 -3.8159653 -1.24129373 0 0 Z " fill="#9A9A92" transform="translate(19,1)"/>
<path d="M0 0 C4.29 0 8.58 0 13 0 C13 0.66 13 1.32 13 2 C9.7 2 6.4 2 3 2 C3 3.32 3 4.64 3 6 C5.97 6 8.94 6 12 6 C12 6.99 12 7.98 12 9 C9.03 9 6.06 9 3 9 C3 10.32 3 11.64 3 13 C6.3 13 9.6 13 13 13 C13 13.66 13 14.32 13 15 C8.71 15 4.42 15 0 15 C0 10.05 0 5.1 0 0 Z " fill="#FDFEF3" transform="translate(57,6)"/>
<path d="M0 0 C0.66 0.33 1.32 0.66 2 1 C1.67 1.99 1.34 2.98 1 4 C-2.3 4 -5.6 4 -9 4 C-9 6.31 -9 8.62 -9 11 C-5.7 11 -2.4 11 1 11 C1.33 11.99 1.66 12.98 2 14 C-1.21202526 15.60601263 -4.51601198 15.47296969 -8 15 C-11 13.375 -11 13.375 -13 11 C-13.625 8.0625 -13.625 8.0625 -13 5 C-9.19021249 -0.47656954 -6.21052976 -0.61087178 0 0 Z " fill="#FAFBF0" transform="translate(85,6)"/>
<path d="M0 0 C2 1.5 2 1.5 3 3 C1.68 3 0.36 3 -1 3 C-3.33634657 3.31151288 -5.67038557 3.64159778 -8 4 C-8.93423645 7.01031744 -9.04449911 7.86650268 -8 11 C-4.26513121 11.5745952 -0.78706732 12 3 12 C2 13.5 2 13.5 0 15 C-6.79245283 15.75471698 -6.79245283 15.75471698 -10.5 13.4375 C-12.58392818 10.05111671 -12.55802097 7.90614682 -12 4 C-8.93537785 -0.980011 -5.34000819 -0.59333424 0 0 Z " fill="#FDFDF2" transform="translate(51,6)"/>
<path d="M0 0 C1.875 0.3125 1.875 0.3125 4 1 C4.66 1.99 5.32 2.98 6 4 C9.27773504 3.24849977 9.27773504 3.24849977 11 0 C11.99 0.33 12.98 0.66 14 1 C12.02 3.97 12.02 3.97 10 7 C10.28875 7.5775 10.5775 8.155 10.875 8.75 C11.91666667 10.83333333 12.95833333 12.91666667 14 15 C9.80074991 14.50992733 8.03667401 12.26288984 5.3125 9.1875 C4.52488281 8.31480469 3.73726563 7.44210938 2.92578125 6.54296875 C1.15711057 4.20746243 0.39238175 2.85308083 0 0 Z " fill="#F9FAEF" transform="translate(89,6)"/>
<path d="M0 0 C1.68375165 0.62225605 3.35767228 1.27544365 5 2 C5 3.65 5 5.3 5 7 C3.68 7.33 2.36 7.66 1 8 C1.99 6.35 2.98 4.7 4 3 C3.360625 3.33 2.72125 3.66 2.0625 4 C-2.01236841 5.33056928 -5.75190425 5.16659199 -10 5 C-7.79208997 -1.15060651 -6.31428497 -1.3619046 0 0 Z " fill="#30322F" transform="translate(21,10)"/>
<path d="M0 0 C0.99 0.495 0.99 0.495 2 1 C1.979375 1.804375 1.95875 2.60875 1.9375 3.4375 C1.70366379 5.93354885 1.70366379 5.93354885 3 7 C3.33 6.34 3.66 5.68 4 5 C4.66 5 5.32 5 6 5 C6 5.99 6 6.98 6 8 C7.98 8.66 9.96 9.32 12 10 C12 10.99 12 11.98 12 13 C11.34 13 10.68 13 10 13 C10 12.34 10 11.68 10 11 C7.03 10.505 7.03 10.505 4 10 C4 10.66 4 11.32 4 12 C4.99 12.33 5.98 12.66 7 13 C6.01 13.33 5.02 13.66 4 14 C2.68 13.34 1.36 12.68 0 12 C0 8.04 0 4.08 0 0 Z " fill="#404543" transform="translate(3,7)"/>
<path d="M0 0 C1.32 0 2.64 0 4 0 C4 0.99 4 1.98 4 3 C7.3 3 10.6 3 14 3 C14.33 3.99 14.66 4.98 15 6 C11.79532561 7.60233719 8.47697993 7.49196274 5 7 C2 5.1875 2 5.1875 0 3 C0 2.01 0 1.02 0 0 Z " fill="#BFC4C1" transform="translate(72,14)"/>
<path d="M0 0 C3.96 0 7.92 0 12 0 C12 0.33 12 0.66 12 1 C9.03 1 6.06 1 3 1 C3 2.32 3 3.64 3 5 C6.3 5 9.6 5 13 5 C13 5.66 13 6.32 13 7 C8.71 7 4.42 7 0 7 C0 4.69 0 2.38 0 0 Z " fill="#B5BCBB" transform="translate(57,14)"/>
<path d="M0 0 C1.32 0 2.64 0 4 0 C4 0.66 4 1.32 4 2 C2.34467377 3.01866229 0.67739862 4.01810813 -1 5 C-1.33 5.66 -1.66 6.32 -2 7 C-1.34 7.33 -0.68 7.66 0 8 C-2.31 8 -4.62 8 -7 8 C-6.67 7.01 -6.34 6.02 -6 5 C-7.32 4.34 -8.64 3.68 -10 3 C-10 2.67 -10 2.34 -10 2 C-9.04287109 1.90912109 -9.04287109 1.90912109 -8.06640625 1.81640625 C-6.82697266 1.69072266 -6.82697266 1.69072266 -5.5625 1.5625 C-4.73878906 1.48128906 -3.91507813 1.40007813 -3.06640625 1.31640625 C-1.01337975 1.21069185 -1.01337975 1.21069185 0 0 Z " fill="#87999E" transform="translate(21,13)"/>
<path d="M0 0 C0.81210937 0.29003906 1.62421875 0.58007812 2.4609375 0.87890625 C3.27820312 1.16636719 4.09546875 1.45382813 4.9375 1.75 C5.56398438 1.97816406 6.19046875 2.20632813 6.8359375 2.44140625 C6.8359375 3.10140625 6.8359375 3.76140625 6.8359375 4.44140625 C6.13726562 4.35761719 5.43859375 4.27382812 4.71875 4.1875 C3.80867188 4.08566406 2.89859375 3.98382812 1.9609375 3.87890625 C1.05601563 3.77449219 0.15109375 3.67007812 -0.78125 3.5625 C-3.18059307 3.24465773 -3.18059307 3.24465773 -5.1640625 4.44140625 C-6.29756784 6.45810452 -6.29756784 6.45810452 -7.1640625 8.44140625 C-7.8240625 8.44140625 -8.4840625 8.44140625 -9.1640625 8.44140625 C-9.4765625 6.12890625 -9.4765625 6.12890625 -9.1640625 3.44140625 C-6.7890625 1.69140625 -6.7890625 1.69140625 -4.1640625 0.44140625 C-2.1640625 -0.55859375 -2.1640625 -0.55859375 0 0 Z " fill="#D0D1C9" transform="translate(18.1640625,6.55859375)"/>
<path d="M0 0 C-3.27171708 1.75439901 -6.60422042 2.95717385 -10.125 4.125 C-11.17945313 4.47820313 -12.23390625 4.83140625 -13.3203125 5.1953125 C-16 6 -16 6 -18 6 C-18 9.63 -18 13.26 -18 17 C-18.33 17 -18.66 17 -19 17 C-19 13.04 -19 9.08 -19 5 C-16.58848443 3.96520787 -14.17205531 2.9470628 -11.75 1.9375 C-11.06808594 1.64294922 -10.38617188 1.34839844 -9.68359375 1.04492188 C-5.98010605 -0.48321625 -3.8159653 -1.24129373 0 0 Z " fill="#E5E5DF" transform="translate(19,1)"/>
<path d="M0 0 C2.40072955 2.88087546 4.47291037 5.56404834 6 9 C4.68 9 3.36 9 2 9 C2 8.34 2 7.68 2 7 C1.01 7.66 0.02 8.32 -1 9 C-2.32 8.67 -3.64 8.34 -5 8 C-3.35 5.36 -1.7 2.72 0 0 Z " fill="#F9FAED" transform="translate(113,6)"/>
<path d="M0 0 C0.99 0 1.98 0 3 0 C3.33 0.99 3.66 1.98 4 3 C7.73486879 3.5745952 11.21293268 4 15 4 C14 5.5 14 5.5 12 7 C5.06312292 7.77076412 5.06312292 7.77076412 1.5 5.1875 C0 3 0 3 0 0 Z " fill="#BABEBB" transform="translate(39,14)"/>
<path d="M0 0 C3.3 0 6.6 0 10 0 C9.01 0.495 9.01 0.495 8 1 C7.27840576 2.64363134 6.60648579 4.31050386 6 6 C5.34 6 4.68 6 4 6 C3.67 6.99 3.34 7.98 3 9 C1 7 1 7 0.9375 4.5 C0.958125 3.675 0.97875 2.85 1 2 C0.67 1.34 0.34 0.68 0 0 Z " fill="#636763" transform="translate(3,6)"/>
<path d="M0 0 C2.9375 0.375 2.9375 0.375 6 1 C6.33 1.66 6.66 2.32 7 3 C10.02934491 3.65772428 10.02934491 3.65772428 13 4 C13 4.66 13 5.32 13 6 C8.58937864 7.0257259 6.07369424 7.03684712 2 5 C2 4.34 2 3.68 2 3 C1.34 2.67 0.68 2.34 0 2 C0 1.34 0 0.68 0 0 Z " fill="#575D5B" transform="translate(7,17)"/>
<path d="M0 0 C0.99 0.2165625 0.99 0.2165625 2 0.4375 C4 1 4 1 6 3 C4.35492782 3.19406478 2.70890406 3.38007935 1.0625 3.5625 C-0.31228516 3.71912109 -0.31228516 3.71912109 -1.71484375 3.87890625 C-2.46894531 3.91886719 -3.22304687 3.95882813 -4 4 C-4.33 3.67 -4.66 3.34 -5 3 C-6.32 3 -7.64 3 -9 3 C-9 2.34 -9 1.68 -9 1 C-2.25 -1.125 -2.25 -1.125 0 0 Z " fill="#44423B" transform="translate(15,4)"/>
<path d="M0 0 C0.66 0 1.32 0 2 0 C2 4.95 2 9.9 2 15 C1.34 15 0.68 15 0 15 C0 10.05 0 5.1 0 0 Z " fill="#D5D9D4" transform="translate(125,6)"/>
<path d="M0 0 C3.375 -0.125 3.375 -0.125 7 0 C7.66 0.66 8.32 1.32 9 2 C7.68 2 6.36 2 5 2 C5.33 2.66 5.66 3.32 6 4 C3.69 4 1.38 4 -1 4 C-0.67 2.68 -0.34 1.36 0 0 Z " fill="#717E80" transform="translate(15,2)"/>
<path d="M0 0 C2.25 0.125 2.25 0.125 5 1 C7.3125 4.0625 7.3125 4.0625 9 7 C6.62051228 6.82374165 5.29774151 6.30280227 3.62109375 4.59765625 C2.37884514 3.09350908 1.18623944 1.54870149 0 0 Z " fill="#BDC3BE" transform="translate(94,14)"/>
<path d="M0 0 C0.66 0 1.32 0 2 0 C2.33 0.99 2.66 1.98 3 3 C2.01 4.485 2.01 4.485 1 6 C-0.32 5.67 -1.64 5.34 -3 5 C-1.625 2.5 -1.625 2.5 0 0 Z " fill="#BFC4C1" transform="translate(92,15)"/>
<path d="M0 0 C0.66 0 1.32 0 2 0 C2 2.31 2 4.62 2 7 C1.01 7.33 0.02 7.66 -1 8 C-1.08226668 4.95613276 -0.97608217 2.92824652 0 0 Z " fill="#697C81" transform="translate(27,8)"/>
<path d="M0 0 C0.99 0 1.98 0 3 0 C3.625 1.8125 3.625 1.8125 4 4 C3.01 5.485 3.01 5.485 2 7 C0 5 0 5 -0.125 2.375 C-0.08375 1.59125 -0.0425 0.8075 0 0 Z " fill="#73898F" transform="translate(4,8)"/>
<path d="M0 0 C0.66 1.32 1.32 2.64 2 4 C1.34 4.66 0.68 5.32 0 6 C-2.125 5.625 -2.125 5.625 -4 5 C-2.68 3.35 -1.36 1.7 0 0 Z " fill="#F0F2E5" transform="translate(112,9)"/>
<path d="M0 0 C0 0.66 0 1.32 0 2 C-2.64738916 3.4606285 -3.89448334 4 -7 4 C-7 3.34 -7 2.68 -7 2 C-4 0 -4 0 0 0 Z " fill="#BDBDB5" transform="translate(25,13)"/>
<path d="M0 0 C0.99 0 1.98 0 3 0 C3.33 0.99 3.66 1.98 4 3 C2.68 2.67 1.36 2.34 0 2 C0 1.34 0 0.68 0 0 Z " fill="#B8BDBA" transform="translate(118,18)"/>
<path d="M0 0 C0.99 0 1.98 0 3 0 C2.67 0.99 2.34 1.98 2 3 C1.01 2.67 0.02 2.34 -1 2 C-0.67 1.34 -0.34 0.68 0 0 Z " fill="#B8C1BE" transform="translate(106,18)"/>
<path d="M0 0 C1.65 0.33 3.3 0.66 5 1 C5 1.33 5 1.66 5 2 C3.02 2 1.04 2 -1 2 C-0.67 1.34 -0.34 0.68 0 0 Z " fill="#ADB4B5" transform="translate(113,16)"/>
</svg>
